<svg xmlns="http://www.w3.org/2000/svg" viewBox="0 0 38 38" width="38" height="38">
  <defs>
    <linearGradient id="g1" x1="0%" y1="0%" x2="100%" y2="100%">
      <stop offset="0%" style="stop-color:#00e8bb"/>
      <stop offset="100%" style="stop-color:#00d4aa"/>
    </linearGradient>
    <linearGradient id="g2" x1="0%" y1="0%" x2="100%" y2="100%">
      <stop offset="0%" style="stop-color:#008870"/>
      <stop offset="100%" style="stop-color:#006650"/>
    </linearGradient>
  </defs>
  <!-- Hexagonal gem -->
  <polygon points="19,3 33,10.5 33,25.5 19,33 5,25.5 5,10.5" fill="none" stroke="#00d4aa" stroke-width="1.5" opacity="0.6"/>
  <polygon points="19,7 30,13 30,23 19,29 8,23 8,13" fill="#00d4aa" opacity="0.12"/>
  <!-- Top facet -->
  <polygon points="19,7 30,13 19,16.5 8,13" fill="url(#g1)" opacity="0.5"/>
  <!-- Left facet -->
  <polygon points="8,13 19,16.5 19,29 8,23" fill="url(#g2)" opacity="0.35"/>
  <!-- Right facet -->
  <polygon points="30,13 19,16.5 19,29 30,23" fill="#00d4aa" opacity="0.25"/>
  <!-- Center node -->
  <circle cx="19" cy="16.5" r="2.5" fill="#00d4aa"/>
  <!-- Corner nodes -->
  <circle cx="19" cy="7" r="1.5" fill="#00d4aa" opacity="0.8"/>
  <circle cx="30" cy="13" r="1.5" fill="#00d4aa" opacity="0.6"/>
  <circle cx="8" cy="13" r="1.5" fill="#00d4aa" opacity="0.6"/>
</svg>
